<mxfile host="app.diagrams.net" modified="2023-05-24T14:09:15.923Z" agent="Mozilla/5.0 (Windows NT 10.0; Win64; x64) AppleWebKit/537.36 (KHTML, like Gecko) Chrome/113.0.0.0 Safari/537.36" etag="RecvPQ59a8Z_8AqADMaZ" version="21.3.3" type="github">
  <diagram name="第 1 页" id="jQK_BMHHEw9vrDmMg4vz">
    <mxGraphModel dx="1050" dy="541" grid="1" gridSize="10" guides="1" tooltips="1" connect="1" arrows="1" fold="1" page="1" pageScale="1" pageWidth="3300" pageHeight="4681" math="0" shadow="0">
      <root>
        <mxCell id="0" />
        <mxCell id="1" parent="0" />
        <mxCell id="dpEzo3avSsQfXPYqwDW7-4" style="edgeStyle=orthogonalEdgeStyle;rounded=0;orthogonalLoop=1;jettySize=auto;html=1;exitX=0.5;exitY=1;exitDx=0;exitDy=0;entryX=0.5;entryY=0;entryDx=0;entryDy=0;" edge="1" parent="1" source="dpEzo3avSsQfXPYqwDW7-1" target="dpEzo3avSsQfXPYqwDW7-2">
          <mxGeometry relative="1" as="geometry" />
        </mxCell>
        <mxCell id="dpEzo3avSsQfXPYqwDW7-5" style="edgeStyle=orthogonalEdgeStyle;rounded=0;orthogonalLoop=1;jettySize=auto;html=1;exitX=0.5;exitY=1;exitDx=0;exitDy=0;" edge="1" parent="1" source="dpEzo3avSsQfXPYqwDW7-1" target="dpEzo3avSsQfXPYqwDW7-3">
          <mxGeometry relative="1" as="geometry" />
        </mxCell>
        <mxCell id="dpEzo3avSsQfXPYqwDW7-1" value="教师功能模块" style="rounded=0;whiteSpace=wrap;html=1;" vertex="1" parent="1">
          <mxGeometry x="480" y="60" width="120" height="60" as="geometry" />
        </mxCell>
        <mxCell id="dpEzo3avSsQfXPYqwDW7-13" style="edgeStyle=orthogonalEdgeStyle;rounded=0;orthogonalLoop=1;jettySize=auto;html=1;exitX=0.5;exitY=1;exitDx=0;exitDy=0;entryX=0.5;entryY=0;entryDx=0;entryDy=0;" edge="1" parent="1" source="dpEzo3avSsQfXPYqwDW7-2" target="dpEzo3avSsQfXPYqwDW7-6">
          <mxGeometry relative="1" as="geometry" />
        </mxCell>
        <mxCell id="dpEzo3avSsQfXPYqwDW7-14" style="edgeStyle=orthogonalEdgeStyle;rounded=0;orthogonalLoop=1;jettySize=auto;html=1;exitX=0.5;exitY=1;exitDx=0;exitDy=0;" edge="1" parent="1" source="dpEzo3avSsQfXPYqwDW7-2" target="dpEzo3avSsQfXPYqwDW7-7">
          <mxGeometry relative="1" as="geometry" />
        </mxCell>
        <mxCell id="dpEzo3avSsQfXPYqwDW7-15" style="edgeStyle=orthogonalEdgeStyle;rounded=0;orthogonalLoop=1;jettySize=auto;html=1;exitX=0.5;exitY=1;exitDx=0;exitDy=0;entryX=0.5;entryY=0;entryDx=0;entryDy=0;" edge="1" parent="1" source="dpEzo3avSsQfXPYqwDW7-2" target="dpEzo3avSsQfXPYqwDW7-8">
          <mxGeometry relative="1" as="geometry" />
        </mxCell>
        <mxCell id="dpEzo3avSsQfXPYqwDW7-16" style="edgeStyle=orthogonalEdgeStyle;rounded=0;orthogonalLoop=1;jettySize=auto;html=1;exitX=0.5;exitY=1;exitDx=0;exitDy=0;entryX=0.5;entryY=0;entryDx=0;entryDy=0;" edge="1" parent="1" source="dpEzo3avSsQfXPYqwDW7-2" target="dpEzo3avSsQfXPYqwDW7-9">
          <mxGeometry relative="1" as="geometry" />
        </mxCell>
        <mxCell id="dpEzo3avSsQfXPYqwDW7-17" style="edgeStyle=orthogonalEdgeStyle;rounded=0;orthogonalLoop=1;jettySize=auto;html=1;exitX=0.5;exitY=1;exitDx=0;exitDy=0;entryX=0.5;entryY=0;entryDx=0;entryDy=0;" edge="1" parent="1" source="dpEzo3avSsQfXPYqwDW7-2" target="dpEzo3avSsQfXPYqwDW7-10">
          <mxGeometry relative="1" as="geometry" />
        </mxCell>
        <mxCell id="dpEzo3avSsQfXPYqwDW7-18" style="edgeStyle=orthogonalEdgeStyle;rounded=0;orthogonalLoop=1;jettySize=auto;html=1;exitX=0.5;exitY=1;exitDx=0;exitDy=0;entryX=0.5;entryY=0;entryDx=0;entryDy=0;" edge="1" parent="1" source="dpEzo3avSsQfXPYqwDW7-2" target="dpEzo3avSsQfXPYqwDW7-11">
          <mxGeometry relative="1" as="geometry" />
        </mxCell>
        <mxCell id="dpEzo3avSsQfXPYqwDW7-19" style="edgeStyle=orthogonalEdgeStyle;rounded=0;orthogonalLoop=1;jettySize=auto;html=1;exitX=0.5;exitY=1;exitDx=0;exitDy=0;" edge="1" parent="1" source="dpEzo3avSsQfXPYqwDW7-2" target="dpEzo3avSsQfXPYqwDW7-12">
          <mxGeometry relative="1" as="geometry" />
        </mxCell>
        <mxCell id="dpEzo3avSsQfXPYqwDW7-2" value="课程管理" style="rounded=0;whiteSpace=wrap;html=1;" vertex="1" parent="1">
          <mxGeometry x="330" y="190" width="120" height="60" as="geometry" />
        </mxCell>
        <mxCell id="dpEzo3avSsQfXPYqwDW7-3" value="课后答疑" style="rounded=0;whiteSpace=wrap;html=1;" vertex="1" parent="1">
          <mxGeometry x="640" y="190" width="120" height="60" as="geometry" />
        </mxCell>
        <mxCell id="dpEzo3avSsQfXPYqwDW7-6" value="课程发布" style="rounded=0;whiteSpace=wrap;html=1;" vertex="1" parent="1">
          <mxGeometry x="40" y="320" width="120" height="60" as="geometry" />
        </mxCell>
        <mxCell id="dpEzo3avSsQfXPYqwDW7-7" value="课程资源上传" style="rounded=0;whiteSpace=wrap;html=1;" vertex="1" parent="1">
          <mxGeometry x="180" y="320" width="120" height="60" as="geometry" />
        </mxCell>
        <mxCell id="dpEzo3avSsQfXPYqwDW7-8" value="考试发布" style="rounded=0;whiteSpace=wrap;html=1;" vertex="1" parent="1">
          <mxGeometry x="320" y="320" width="120" height="60" as="geometry" />
        </mxCell>
        <mxCell id="dpEzo3avSsQfXPYqwDW7-9" value="发布作业" style="rounded=0;whiteSpace=wrap;html=1;" vertex="1" parent="1">
          <mxGeometry x="460" y="320" width="120" height="60" as="geometry" />
        </mxCell>
        <mxCell id="dpEzo3avSsQfXPYqwDW7-10" value="发布通知" style="rounded=0;whiteSpace=wrap;html=1;" vertex="1" parent="1">
          <mxGeometry x="600" y="320" width="120" height="60" as="geometry" />
        </mxCell>
        <mxCell id="dpEzo3avSsQfXPYqwDW7-11" value="作业批改" style="rounded=0;whiteSpace=wrap;html=1;" vertex="1" parent="1">
          <mxGeometry x="740" y="320" width="120" height="60" as="geometry" />
        </mxCell>
        <mxCell id="dpEzo3avSsQfXPYqwDW7-12" value="考试批改" style="rounded=0;whiteSpace=wrap;html=1;" vertex="1" parent="1">
          <mxGeometry x="880" y="320" width="120" height="60" as="geometry" />
        </mxCell>
      </root>
    </mxGraphModel>
  </diagram>
</mxfile>
